<mxfile host="Electron" modified="2023-04-21T04:36:55.326Z" agent="Mozilla/5.0 (Windows NT 10.0; Win64; x64) AppleWebKit/537.36 (KHTML, like Gecko) draw.io/21.2.1 Chrome/112.0.5615.87 Electron/24.1.2 Safari/537.36" etag="RI0ojavSKwYMAIyqo_vs" compressed="false" version="21.2.1" type="device">
  <diagram id="1IEk_Nb3fTFsxIXIZDjR" name="Page-1">
    <mxGraphModel dx="2856" dy="1580" grid="1" gridSize="10" guides="1" tooltips="1" connect="1" arrows="1" fold="1" page="0" pageScale="1" pageWidth="850" pageHeight="1100" math="1" shadow="0">
      <root>
        <mxCell id="0" />
        <mxCell id="1" parent="0" />
        <mxCell id="fEJVTDYWBAnu_BtNUPud-68" value="&lt;font style=&quot;font-size: 14px;&quot;&gt;Optimization Loop&lt;/font&gt;" style="shape=umlFrame;whiteSpace=wrap;html=1;width=90;height=40;fontStyle=1" parent="1" vertex="1">
          <mxGeometry x="220" y="460" width="400" height="110" as="geometry" />
        </mxCell>
        <mxCell id="fEJVTDYWBAnu_BtNUPud-48" value="&lt;font style=&quot;font-size: 14px;&quot;&gt;Optimization Loop&lt;/font&gt;" style="shape=umlFrame;whiteSpace=wrap;html=1;width=90;height=45;fontStyle=1" parent="1" vertex="1">
          <mxGeometry x="-230" y="195" width="330" height="105" as="geometry" />
        </mxCell>
        <mxCell id="fEJVTDYWBAnu_BtNUPud-1" value=":Controller" style="shape=umlLifeline;perimeter=lifelinePerimeter;whiteSpace=wrap;html=1;container=1;collapsible=0;recursiveResize=0;outlineConnect=0;fontStyle=1" parent="1" vertex="1">
          <mxGeometry x="-560" y="-120" width="120" height="770" as="geometry" />
        </mxCell>
        <mxCell id="fEJVTDYWBAnu_BtNUPud-25" value="" style="html=1;points=[];perimeter=orthogonalPerimeter;fontStyle=1" parent="fEJVTDYWBAnu_BtNUPud-1" vertex="1">
          <mxGeometry x="55" y="100" width="10" height="60" as="geometry" />
        </mxCell>
        <mxCell id="fEJVTDYWBAnu_BtNUPud-74" value="" style="html=1;points=[];perimeter=orthogonalPerimeter;fontStyle=1" parent="fEJVTDYWBAnu_BtNUPud-1" vertex="1">
          <mxGeometry x="55" y="700" width="10" height="20" as="geometry" />
        </mxCell>
        <mxCell id="fEJVTDYWBAnu_BtNUPud-2" value=":Environment" style="shape=umlLifeline;perimeter=lifelinePerimeter;whiteSpace=wrap;html=1;container=1;collapsible=0;recursiveResize=0;outlineConnect=0;fontStyle=1" parent="1" vertex="1">
          <mxGeometry x="-750" y="-120" width="90" height="770" as="geometry" />
        </mxCell>
        <mxCell id="fEJVTDYWBAnu_BtNUPud-3" value=":SelfAdaptationManager" style="shape=umlLifeline;perimeter=lifelinePerimeter;whiteSpace=wrap;html=1;container=1;collapsible=0;recursiveResize=0;outlineConnect=0;fillColor=#84DD63;fontStyle=1" parent="1" vertex="1">
          <mxGeometry x="-330" y="-120" width="140" height="770" as="geometry" />
        </mxCell>
        <mxCell id="fEJVTDYWBAnu_BtNUPud-24" value="" style="html=1;points=[];perimeter=orthogonalPerimeter;fontStyle=1" parent="fEJVTDYWBAnu_BtNUPud-3" vertex="1">
          <mxGeometry x="65" y="100" width="10" height="540" as="geometry" />
        </mxCell>
        <mxCell id="fEJVTDYWBAnu_BtNUPud-31" value="&lt;font style=&quot;font-size: 14px;&quot;&gt;anomaly?&lt;/font&gt;" style="edgeStyle=orthogonalEdgeStyle;html=1;align=left;spacingLeft=2;endArrow=block;rounded=0;fontSize=12;fontStyle=1" parent="fEJVTDYWBAnu_BtNUPud-3" source="fEJVTDYWBAnu_BtNUPud-24" target="fEJVTDYWBAnu_BtNUPud-24" edge="1">
          <mxGeometry relative="1" as="geometry">
            <mxPoint x="75" y="210" as="sourcePoint" />
            <Array as="points">
              <mxPoint x="100" y="180" />
              <mxPoint x="100" y="200" />
            </Array>
            <mxPoint x="75" y="240" as="targetPoint" />
          </mxGeometry>
        </mxCell>
        <mxCell id="fEJVTDYWBAnu_BtNUPud-4" value=":Calibrator" style="shape=umlLifeline;perimeter=lifelinePerimeter;whiteSpace=wrap;html=1;container=1;collapsible=0;recursiveResize=0;outlineConnect=0;fillColor=#5F0F40;fontColor=#FFFFFF;fontStyle=1" parent="1" vertex="1">
          <mxGeometry x="-170" y="-120" width="70" height="770" as="geometry" />
        </mxCell>
        <mxCell id="fEJVTDYWBAnu_BtNUPud-34" value="" style="html=1;points=[];perimeter=orthogonalPerimeter;fontStyle=1" parent="fEJVTDYWBAnu_BtNUPud-4" vertex="1">
          <mxGeometry x="30" y="225.07999999999998" width="10" height="440" as="geometry" />
        </mxCell>
        <mxCell id="fEJVTDYWBAnu_BtNUPud-49" value="&lt;font style=&quot;font-size: 14px;&quot;&gt;guess params&lt;/font&gt;" style="edgeStyle=orthogonalEdgeStyle;html=1;align=left;spacingLeft=2;endArrow=block;rounded=0;exitX=0.967;exitY=0.277;exitDx=0;exitDy=0;exitPerimeter=0;fontSize=12;fontStyle=1" parent="fEJVTDYWBAnu_BtNUPud-4" edge="1">
          <mxGeometry x="-0.0181" y="10" relative="1" as="geometry">
            <mxPoint x="39.67000000000007" y="365" as="sourcePoint" />
            <Array as="points">
              <mxPoint x="40" y="350" />
              <mxPoint x="70" y="350" />
              <mxPoint x="70" y="370" />
              <mxPoint x="40" y="370" />
            </Array>
            <mxPoint x="40" y="383.13176470588235" as="targetPoint" />
            <mxPoint as="offset" />
          </mxGeometry>
        </mxCell>
        <mxCell id="fEJVTDYWBAnu_BtNUPud-5" value=":InfluxDB" style="shape=umlLifeline;perimeter=lifelinePerimeter;whiteSpace=wrap;html=1;container=1;collapsible=0;recursiveResize=0;outlineConnect=0;fontStyle=1" parent="1" vertex="1">
          <mxGeometry x="130" y="-120" width="76" height="770" as="geometry" />
        </mxCell>
        <mxCell id="fEJVTDYWBAnu_BtNUPud-39" value="" style="html=1;points=[];perimeter=orthogonalPerimeter;fontStyle=1" parent="fEJVTDYWBAnu_BtNUPud-5" vertex="1">
          <mxGeometry x="33" y="230" width="10" height="23" as="geometry" />
        </mxCell>
        <mxCell id="fEJVTDYWBAnu_BtNUPud-45" value="" style="html=1;points=[];perimeter=orthogonalPerimeter;fontStyle=1" parent="fEJVTDYWBAnu_BtNUPud-5" vertex="1">
          <mxGeometry x="33" y="273" width="10" height="29" as="geometry" />
        </mxCell>
        <mxCell id="fEJVTDYWBAnu_BtNUPud-55" value="" style="html=1;points=[];perimeter=orthogonalPerimeter;fontStyle=1" parent="fEJVTDYWBAnu_BtNUPud-5" vertex="1">
          <mxGeometry x="33" y="460" width="10" height="21" as="geometry" />
        </mxCell>
        <mxCell id="fEJVTDYWBAnu_BtNUPud-62" value="" style="html=1;points=[];perimeter=orthogonalPerimeter;fontStyle=1" parent="fEJVTDYWBAnu_BtNUPud-5" vertex="1">
          <mxGeometry x="33" y="510" width="10" height="21" as="geometry" />
        </mxCell>
        <mxCell id="fEJVTDYWBAnu_BtNUPud-65" value="" style="html=1;points=[];perimeter=orthogonalPerimeter;fontStyle=1" parent="fEJVTDYWBAnu_BtNUPud-5" vertex="1">
          <mxGeometry x="33" y="554.5" width="10" height="21" as="geometry" />
        </mxCell>
        <mxCell id="fEJVTDYWBAnu_BtNUPud-76" value="" style="html=1;points=[];perimeter=orthogonalPerimeter;fontStyle=1" parent="fEJVTDYWBAnu_BtNUPud-5" vertex="1">
          <mxGeometry x="33" y="730" width="10" height="20" as="geometry" />
        </mxCell>
        <mxCell id="fEJVTDYWBAnu_BtNUPud-6" value=":PlantSimulator" style="shape=umlLifeline;perimeter=lifelinePerimeter;whiteSpace=wrap;html=1;container=1;collapsible=0;recursiveResize=0;outlineConnect=0;fillColor=#FCDC4D;fontStyle=1" parent="1" vertex="1">
          <mxGeometry x="30" y="-120" width="90" height="770" as="geometry" />
        </mxCell>
        <mxCell id="fEJVTDYWBAnu_BtNUPud-50" value="" style="html=1;points=[];perimeter=orthogonalPerimeter;fontStyle=1" parent="fEJVTDYWBAnu_BtNUPud-6" vertex="1">
          <mxGeometry x="40" y="391" width="10" height="21" as="geometry" />
        </mxCell>
        <mxCell id="fEJVTDYWBAnu_BtNUPud-7" value=":ControllerOptimizer" style="shape=umlLifeline;perimeter=lifelinePerimeter;whiteSpace=wrap;html=1;container=1;collapsible=0;recursiveResize=0;outlineConnect=0;fillColor=#9A031E;fontColor=#FFFFFF;fontStyle=1" parent="1" vertex="1">
          <mxGeometry x="250" y="-120" width="150" height="770" as="geometry" />
        </mxCell>
        <mxCell id="fEJVTDYWBAnu_BtNUPud-60" value="" style="html=1;points=[];perimeter=orthogonalPerimeter;fontStyle=1" parent="fEJVTDYWBAnu_BtNUPud-7" vertex="1">
          <mxGeometry x="70" y="490" width="10" height="260" as="geometry" />
        </mxCell>
        <mxCell id="fEJVTDYWBAnu_BtNUPud-72" value="&lt;font style=&quot;font-size: 14px;&quot;&gt;guess control &lt;br style=&quot;&quot;&gt;params&lt;/font&gt;" style="edgeStyle=orthogonalEdgeStyle;html=1;align=left;spacingLeft=2;endArrow=block;rounded=0;fontSize=12;fontStyle=1" parent="fEJVTDYWBAnu_BtNUPud-7" source="fEJVTDYWBAnu_BtNUPud-60" target="fEJVTDYWBAnu_BtNUPud-60" edge="1">
          <mxGeometry y="10" relative="1" as="geometry">
            <mxPoint x="110.00000000000006" y="720" as="sourcePoint" />
            <Array as="points">
              <mxPoint x="110" y="610" />
              <mxPoint x="110" y="630" />
            </Array>
            <mxPoint x="110.32999999999998" y="738.1317647058822" as="targetPoint" />
            <mxPoint as="offset" />
          </mxGeometry>
        </mxCell>
        <mxCell id="fEJVTDYWBAnu_BtNUPud-8" value=":PhysicalTwinSimulator" style="shape=umlLifeline;perimeter=lifelinePerimeter;whiteSpace=wrap;html=1;container=1;collapsible=0;recursiveResize=0;outlineConnect=0;fillColor=#FCDC4D;fontStyle=1" parent="1" vertex="1">
          <mxGeometry x="440" y="-120" width="150" height="770" as="geometry" />
        </mxCell>
        <mxCell id="fEJVTDYWBAnu_BtNUPud-70" value="" style="html=1;points=[];perimeter=orthogonalPerimeter;fontStyle=1" parent="fEJVTDYWBAnu_BtNUPud-8" vertex="1">
          <mxGeometry x="70" y="660" width="10" height="20" as="geometry" />
        </mxCell>
        <mxCell id="fEJVTDYWBAnu_BtNUPud-10" value="&lt;font style=&quot;font-size: 14px;&quot;&gt;sense&lt;/font&gt;" style="html=1;verticalAlign=bottom;endArrow=block;rounded=0;entryX=1.037;entryY=0.059;entryDx=0;entryDy=0;entryPerimeter=0;fontSize=12;fontStyle=1" parent="1" source="fEJVTDYWBAnu_BtNUPud-1" target="fEJVTDYWBAnu_BtNUPud-9" edge="1">
          <mxGeometry relative="1" as="geometry">
            <mxPoint x="-498.25" y="-38.819999999999936" as="sourcePoint" />
          </mxGeometry>
        </mxCell>
        <mxCell id="fEJVTDYWBAnu_BtNUPud-11" value="&lt;font style=&quot;font-size: 14px;&quot;&gt;{time, T}&lt;/font&gt;" style="html=1;verticalAlign=bottom;endArrow=open;dashed=1;endSize=8;exitX=0;exitY=0.95;rounded=0;fontSize=12;fontStyle=1" parent="1" source="fEJVTDYWBAnu_BtNUPud-9" edge="1">
          <mxGeometry relative="1" as="geometry">
            <mxPoint x="-498.25" y="-21" as="targetPoint" />
          </mxGeometry>
        </mxCell>
        <mxCell id="fEJVTDYWBAnu_BtNUPud-13" value="&lt;font style=&quot;font-size: 14px;&quot;&gt;lift lid&lt;/font&gt;" style="html=1;verticalAlign=bottom;startArrow=oval;endArrow=block;startSize=8;rounded=0;entryX=-0.2;entryY=0;entryDx=0;entryDy=0;entryPerimeter=0;fontSize=12;fontStyle=1" parent="1" source="fEJVTDYWBAnu_BtNUPud-2" target="fEJVTDYWBAnu_BtNUPud-12" edge="1">
          <mxGeometry relative="1" as="geometry">
            <mxPoint x="-704.9" y="-60" as="sourcePoint" />
          </mxGeometry>
        </mxCell>
        <mxCell id="fEJVTDYWBAnu_BtNUPud-14" value=":Plant" style="shape=umlLifeline;perimeter=lifelinePerimeter;whiteSpace=wrap;html=1;container=1;collapsible=0;recursiveResize=0;outlineConnect=0;fontStyle=1" parent="1" vertex="1">
          <mxGeometry x="-660" y="-120" width="50" height="770" as="geometry" />
        </mxCell>
        <mxCell id="fEJVTDYWBAnu_BtNUPud-12" value="" style="html=1;points=[];perimeter=orthogonalPerimeter;fontStyle=1" parent="fEJVTDYWBAnu_BtNUPud-14" vertex="1">
          <mxGeometry x="20" y="70" width="10" height="20" as="geometry" />
        </mxCell>
        <mxCell id="fEJVTDYWBAnu_BtNUPud-18" value=":Driver" style="shape=umlLifeline;perimeter=lifelinePerimeter;whiteSpace=wrap;html=1;container=1;collapsible=0;recursiveResize=0;outlineConnect=0;fontStyle=1" parent="1" vertex="1">
          <mxGeometry x="-610" y="-120" width="50" height="770" as="geometry" />
        </mxCell>
        <mxCell id="fEJVTDYWBAnu_BtNUPud-9" value="" style="html=1;points=[];perimeter=orthogonalPerimeter;fontStyle=1" parent="fEJVTDYWBAnu_BtNUPud-18" vertex="1">
          <mxGeometry x="22.25" y="70" width="10" height="30" as="geometry" />
        </mxCell>
        <mxCell id="fEJVTDYWBAnu_BtNUPud-22" value=":KalmanFilter" style="shape=umlLifeline;perimeter=lifelinePerimeter;whiteSpace=wrap;html=1;container=1;collapsible=0;recursiveResize=0;outlineConnect=0;fillColor=#E9E6FF;fontStyle=1" parent="1" vertex="1">
          <mxGeometry x="-440" y="-120" width="80" height="770" as="geometry" />
        </mxCell>
        <mxCell id="fEJVTDYWBAnu_BtNUPud-16" value="" style="html=1;points=[];perimeter=orthogonalPerimeter;fontStyle=1" parent="fEJVTDYWBAnu_BtNUPud-22" vertex="1">
          <mxGeometry x="35" y="100" width="10" height="80" as="geometry" />
        </mxCell>
        <mxCell id="fEJVTDYWBAnu_BtNUPud-59" value="" style="html=1;points=[];perimeter=orthogonalPerimeter;fontStyle=1" parent="fEJVTDYWBAnu_BtNUPud-22" vertex="1">
          <mxGeometry x="35" y="450" width="10" height="20" as="geometry" />
        </mxCell>
        <mxCell id="fEJVTDYWBAnu_BtNUPud-23" value="&lt;font style=&quot;font-size: 14px;&quot;&gt;{time, T}&amp;nbsp;&amp;nbsp;[MQ]&lt;/font&gt;" style="html=1;verticalAlign=bottom;startArrow=oval;endArrow=block;startSize=8;rounded=0;fontSize=12;fontStyle=1" parent="1" source="fEJVTDYWBAnu_BtNUPud-25" target="fEJVTDYWBAnu_BtNUPud-24" edge="1">
          <mxGeometry relative="1" as="geometry">
            <mxPoint x="-470.5" y="33" as="sourcePoint" />
            <mxPoint x="-375" y="33" as="targetPoint" />
          </mxGeometry>
        </mxCell>
        <mxCell id="fEJVTDYWBAnu_BtNUPud-27" value="&lt;font style=&quot;font-size: 14px;&quot;&gt;{time, T} [MQ]&lt;/font&gt;" style="html=1;verticalAlign=bottom;startArrow=oval;endArrow=block;startSize=8;rounded=0;exitX=1.1;exitY=0.075;exitDx=0;exitDy=0;exitPerimeter=0;fontSize=12;fontStyle=1" parent="1" source="fEJVTDYWBAnu_BtNUPud-25" target="fEJVTDYWBAnu_BtNUPud-16" edge="1">
          <mxGeometry x="-0.0112" y="4" relative="1" as="geometry">
            <mxPoint x="-485" y="39.00999999999999" as="sourcePoint" />
            <mxPoint x="-280" y="39.00999999999999" as="targetPoint" />
            <mxPoint as="offset" />
          </mxGeometry>
        </mxCell>
        <mxCell id="fEJVTDYWBAnu_BtNUPud-29" value="&lt;font style=&quot;font-size: 14px;&quot;&gt;{time, T, T_heater}&lt;br&gt;[MQ]&lt;/font&gt;" style="html=1;verticalAlign=bottom;startArrow=oval;endArrow=block;startSize=8;rounded=0;exitX=1.1;exitY=0.938;exitDx=0;exitDy=0;exitPerimeter=0;fontSize=12;fontStyle=1" parent="1" source="fEJVTDYWBAnu_BtNUPud-16" target="fEJVTDYWBAnu_BtNUPud-24" edge="1">
          <mxGeometry relative="1" as="geometry">
            <mxPoint x="-320" y="504.5" as="sourcePoint" />
            <mxPoint x="-106" y="559.01" as="targetPoint" />
          </mxGeometry>
        </mxCell>
        <mxCell id="fEJVTDYWBAnu_BtNUPud-35" value="&lt;font style=&quot;font-size: 14px;&quot;&gt;trigger &lt;br&gt;if anomaly (dates)&lt;/font&gt;" style="html=1;verticalAlign=bottom;endArrow=block;entryX=0;entryY=0;rounded=0;fontSize=12;fontStyle=1" parent="1" source="fEJVTDYWBAnu_BtNUPud-24" target="fEJVTDYWBAnu_BtNUPud-34" edge="1">
          <mxGeometry x="-0.0435" y="-12" relative="1" as="geometry">
            <mxPoint x="-180" y="70" as="sourcePoint" />
            <mxPoint as="offset" />
          </mxGeometry>
        </mxCell>
        <mxCell id="fEJVTDYWBAnu_BtNUPud-36" value="&lt;font style=&quot;font-size: 13px;&quot;&gt;new plant params&lt;/font&gt;" style="html=1;verticalAlign=bottom;endArrow=open;dashed=1;endSize=8;rounded=0;fontSize=12;fontStyle=1" parent="1" edge="1">
          <mxGeometry relative="1" as="geometry">
            <mxPoint x="-255" y="320" as="targetPoint" />
            <mxPoint x="-140" y="320" as="sourcePoint" />
            <Array as="points">
              <mxPoint x="-170" y="320" />
            </Array>
          </mxGeometry>
        </mxCell>
        <mxCell id="fEJVTDYWBAnu_BtNUPud-40" value="&lt;font style=&quot;font-size: 14px;&quot;&gt;get plant signals between (dates) [API]&lt;/font&gt;" style="html=1;verticalAlign=bottom;endArrow=block;entryX=0;entryY=0;rounded=0;fontSize=12;fontStyle=1;exitX=1.157;exitY=0.013;exitDx=0;exitDy=0;exitPerimeter=0;" parent="1" source="fEJVTDYWBAnu_BtNUPud-34" target="fEJVTDYWBAnu_BtNUPud-39" edge="1">
          <mxGeometry x="0.0239" relative="1" as="geometry">
            <mxPoint x="-130" y="120" as="sourcePoint" />
            <mxPoint as="offset" />
          </mxGeometry>
        </mxCell>
        <mxCell id="fEJVTDYWBAnu_BtNUPud-41" value="&lt;font style=&quot;font-size: 14px;&quot;&gt;signals&lt;/font&gt;" style="html=1;verticalAlign=bottom;endArrow=open;dashed=1;endSize=8;rounded=0;exitX=0.005;exitY=0.872;exitDx=0;exitDy=0;exitPerimeter=0;fontSize=12;fontStyle=1;entryX=1.252;entryY=0.058;entryDx=0;entryDy=0;entryPerimeter=0;" parent="1" source="fEJVTDYWBAnu_BtNUPud-39" target="fEJVTDYWBAnu_BtNUPud-34" edge="1">
          <mxGeometry relative="1" as="geometry">
            <mxPoint x="-130" y="138.31200000000013" as="targetPoint" />
          </mxGeometry>
        </mxCell>
        <mxCell id="fEJVTDYWBAnu_BtNUPud-46" value="&lt;font style=&quot;font-size: 14px;&quot;&gt;get plant params [API]&lt;/font&gt;" style="html=1;verticalAlign=bottom;endArrow=block;entryX=0;entryY=0;rounded=0;fontSize=12;fontStyle=1;exitX=1.205;exitY=0.111;exitDx=0;exitDy=0;exitPerimeter=0;" parent="1" source="fEJVTDYWBAnu_BtNUPud-34" target="fEJVTDYWBAnu_BtNUPud-45" edge="1">
          <mxGeometry relative="1" as="geometry">
            <mxPoint x="-130" y="161" as="sourcePoint" />
          </mxGeometry>
        </mxCell>
        <mxCell id="fEJVTDYWBAnu_BtNUPud-47" value="&lt;font style=&quot;font-size: 14px;&quot;&gt;params&lt;/font&gt;" style="html=1;verticalAlign=bottom;endArrow=open;dashed=1;endSize=8;rounded=0;exitX=0.059;exitY=0.832;exitDx=0;exitDy=0;exitPerimeter=0;fontSize=12;fontStyle=1" parent="1" source="fEJVTDYWBAnu_BtNUPud-45" edge="1">
          <mxGeometry relative="1" as="geometry">
            <mxPoint x="-130" y="178.47199999999998" as="targetPoint" />
          </mxGeometry>
        </mxCell>
        <mxCell id="fEJVTDYWBAnu_BtNUPud-51" value="&lt;font style=&quot;font-size: 13px;&quot;&gt;run simulation (guess params)&lt;/font&gt;" style="html=1;verticalAlign=bottom;endArrow=block;entryX=0;entryY=0;rounded=0;fontSize=12;exitX=0.9;exitY=0.379;exitDx=0;exitDy=0;exitPerimeter=0;fontStyle=1" parent="1" source="fEJVTDYWBAnu_BtNUPud-34" target="fEJVTDYWBAnu_BtNUPud-50" edge="1">
          <mxGeometry relative="1" as="geometry">
            <mxPoint x="-130" y="283.1199999999999" as="sourcePoint" />
          </mxGeometry>
        </mxCell>
        <mxCell id="fEJVTDYWBAnu_BtNUPud-52" value="results" style="html=1;verticalAlign=bottom;endArrow=open;dashed=1;endSize=8;rounded=0;exitX=0.059;exitY=0.832;exitDx=0;exitDy=0;exitPerimeter=0;fontSize=12;entryX=1.016;entryY=0.419;entryDx=0;entryDy=0;entryPerimeter=0;fontStyle=1" parent="1" source="fEJVTDYWBAnu_BtNUPud-50" target="fEJVTDYWBAnu_BtNUPud-34" edge="1">
          <mxGeometry relative="1" as="geometry">
            <mxPoint x="-130" y="300.59199999999987" as="targetPoint" />
          </mxGeometry>
        </mxCell>
        <mxCell id="fEJVTDYWBAnu_BtNUPud-53" value="&lt;font style=&quot;font-size: 14px;&quot;&gt;[results differ from plant signals]&lt;/font&gt;" style="text;html=1;strokeColor=none;fillColor=none;align=center;verticalAlign=middle;whiteSpace=wrap;rounded=0;fontStyle=1" parent="1" vertex="1">
          <mxGeometry x="-120" y="195" width="190" height="30" as="geometry" />
        </mxCell>
        <mxCell id="fEJVTDYWBAnu_BtNUPud-58" value="&lt;font style=&quot;font-size: 14px;&quot;&gt;update(new plant params)&lt;br&gt;[MQ]&lt;/font&gt;" style="html=1;verticalAlign=bottom;endArrow=block;rounded=0;entryX=1.037;entryY=0.059;entryDx=0;entryDy=0;entryPerimeter=0;fontSize=12;exitX=0.054;exitY=0.652;exitDx=0;exitDy=0;exitPerimeter=0;fontStyle=1" parent="1" source="fEJVTDYWBAnu_BtNUPud-24" target="fEJVTDYWBAnu_BtNUPud-59" edge="1">
          <mxGeometry x="0.3144" y="-1" relative="1" as="geometry">
            <mxPoint x="-260" y="340" as="sourcePoint" />
            <mxPoint as="offset" />
          </mxGeometry>
        </mxCell>
        <mxCell id="fEJVTDYWBAnu_BtNUPud-61" value="&lt;font style=&quot;font-size: 14px;&quot;&gt;optimize controller&lt;/font&gt;" style="html=1;verticalAlign=bottom;endArrow=block;rounded=0;fontSize=12;fontStyle=1" parent="1" target="fEJVTDYWBAnu_BtNUPud-60" edge="1">
          <mxGeometry relative="1" as="geometry">
            <mxPoint x="-255" y="370" as="sourcePoint" />
          </mxGeometry>
        </mxCell>
        <mxCell id="fEJVTDYWBAnu_BtNUPud-56" value="&lt;font style=&quot;font-size: 14px;&quot;&gt;store new plant params [API]&lt;/font&gt;" style="html=1;verticalAlign=bottom;endArrow=block;entryX=0;entryY=0;rounded=0;fontSize=12;fontStyle=1" parent="1" target="fEJVTDYWBAnu_BtNUPud-55" edge="1">
          <mxGeometry x="0.0766" relative="1" as="geometry">
            <mxPoint x="-255" y="340" as="sourcePoint" />
            <mxPoint as="offset" />
          </mxGeometry>
        </mxCell>
        <mxCell id="fEJVTDYWBAnu_BtNUPud-63" value="&lt;font style=&quot;font-size: 13px;&quot;&gt;get system snapshot [API]&lt;/font&gt;" style="html=1;verticalAlign=bottom;endArrow=block;rounded=0;fontSize=12;fontStyle=1" parent="1" source="fEJVTDYWBAnu_BtNUPud-60" target="fEJVTDYWBAnu_BtNUPud-62" edge="1">
          <mxGeometry relative="1" as="geometry">
            <mxPoint x="220" y="680" as="sourcePoint" />
            <Array as="points">
              <mxPoint x="190" y="390" />
            </Array>
          </mxGeometry>
        </mxCell>
        <mxCell id="fEJVTDYWBAnu_BtNUPud-64" value="&lt;font style=&quot;font-size: 13px;&quot;&gt;snapshot&lt;/font&gt;" style="html=1;verticalAlign=bottom;endArrow=open;dashed=1;endSize=8;rounded=0;fontSize=12;fontStyle=1" parent="1" source="fEJVTDYWBAnu_BtNUPud-62" target="fEJVTDYWBAnu_BtNUPud-60" edge="1">
          <mxGeometry relative="1" as="geometry">
            <mxPoint x="220" y="698.3119999999999" as="targetPoint" />
            <Array as="points">
              <mxPoint x="210" y="410" />
            </Array>
          </mxGeometry>
        </mxCell>
        <mxCell id="fEJVTDYWBAnu_BtNUPud-66" value="&lt;font style=&quot;font-size: 13px;&quot;&gt;get system params [API]&lt;/font&gt;" style="html=1;verticalAlign=bottom;endArrow=block;rounded=0;fontSize=12;fontStyle=1" parent="1" source="fEJVTDYWBAnu_BtNUPud-60" target="fEJVTDYWBAnu_BtNUPud-65" edge="1">
          <mxGeometry relative="1" as="geometry">
            <mxPoint x="537" y="430" as="sourcePoint" />
            <Array as="points">
              <mxPoint x="210" y="434" />
            </Array>
          </mxGeometry>
        </mxCell>
        <mxCell id="fEJVTDYWBAnu_BtNUPud-67" value="&lt;font style=&quot;font-size: 13px;&quot;&gt;params&lt;/font&gt;" style="html=1;verticalAlign=bottom;endArrow=open;dashed=1;endSize=8;rounded=0;fontSize=12;fontStyle=1" parent="1" source="fEJVTDYWBAnu_BtNUPud-65" target="fEJVTDYWBAnu_BtNUPud-60" edge="1">
          <mxGeometry relative="1" as="geometry">
            <mxPoint x="537" y="450" as="targetPoint" />
            <Array as="points">
              <mxPoint x="190" y="450" />
            </Array>
          </mxGeometry>
        </mxCell>
        <mxCell id="fEJVTDYWBAnu_BtNUPud-69" value="&lt;font style=&quot;font-size: 14px;&quot;&gt;[controller results are not optimal]&lt;/font&gt;" style="text;html=1;strokeColor=none;fillColor=none;align=left;verticalAlign=middle;whiteSpace=wrap;rounded=0;fontStyle=1" parent="1" vertex="1">
          <mxGeometry x="330" y="460" width="240" height="30" as="geometry" />
        </mxCell>
        <mxCell id="fEJVTDYWBAnu_BtNUPud-71" value="&lt;font style=&quot;font-size: 14px;&quot;&gt;run simulation (guess params)&lt;/font&gt;" style="html=1;verticalAlign=bottom;endArrow=block;rounded=0;fontSize=12;fontStyle=1" parent="1" target="fEJVTDYWBAnu_BtNUPud-70" edge="1">
          <mxGeometry x="0.1111" y="5" relative="1" as="geometry">
            <mxPoint x="330" y="545" as="sourcePoint" />
            <Array as="points">
              <mxPoint x="420" y="545" />
            </Array>
            <mxPoint as="offset" />
          </mxGeometry>
        </mxCell>
        <mxCell id="fEJVTDYWBAnu_BtNUPud-73" value="results" style="html=1;verticalAlign=bottom;endArrow=open;dashed=1;endSize=8;rounded=0;fontSize=12;fontStyle=1" parent="1" source="fEJVTDYWBAnu_BtNUPud-70" edge="1">
          <mxGeometry relative="1" as="geometry">
            <mxPoint x="330" y="560" as="targetPoint" />
            <mxPoint x="183.00000000000023" y="430" as="sourcePoint" />
            <Array as="points">
              <mxPoint x="490" y="560" />
            </Array>
          </mxGeometry>
        </mxCell>
        <mxCell id="fEJVTDYWBAnu_BtNUPud-75" value="&lt;font style=&quot;font-size: 14px;&quot;&gt;update(new ctrl params) [MQ]&lt;/font&gt;" style="html=1;verticalAlign=bottom;endArrow=block;rounded=0;entryX=1.037;entryY=0.059;entryDx=0;entryDy=0;entryPerimeter=0;strokeColor=#CB793A;strokeWidth=6;fontSize=12;fontStyle=1" parent="1" target="fEJVTDYWBAnu_BtNUPud-74" edge="1">
          <mxGeometry relative="1" as="geometry">
            <mxPoint x="380" y="581.1799999999996" as="sourcePoint" />
          </mxGeometry>
        </mxCell>
        <mxCell id="fEJVTDYWBAnu_BtNUPud-77" value="&lt;font style=&quot;font-size: 14px;&quot;&gt;store new ctrl params [API]&lt;/font&gt;" style="html=1;verticalAlign=bottom;endArrow=block;rounded=0;entryX=1.037;entryY=0.059;entryDx=0;entryDy=0;entryPerimeter=0;fontSize=12;fontStyle=1" parent="1" target="fEJVTDYWBAnu_BtNUPud-76" edge="1">
          <mxGeometry relative="1" as="geometry">
            <mxPoint x="320" y="611.1799999999996" as="sourcePoint" />
          </mxGeometry>
        </mxCell>
        <mxCell id="-cWf8I99o1Zf3eMFUo6d-1" value="&lt;h1&gt;Self Adaptation Sequence&lt;/h1&gt;&lt;p&gt;This diagrams shows the main interactions between the main entities that participate in the self adaptation process.&amp;nbsp;&lt;span&gt;It is assumed that an anomaly has occurred due to, e.g., the lid being open.&lt;/span&gt;&lt;/p&gt;" style="text;html=1;strokeColor=none;fillColor=none;spacing=5;spacingTop=-20;whiteSpace=wrap;overflow=hidden;rounded=0;" parent="1" vertex="1">
          <mxGeometry x="-750" y="-220" width="540" height="90" as="geometry" />
        </mxCell>
        <mxCell id="ePMcmUR_puS_kPTFhUZq-1" value="" style="rounded=1;whiteSpace=wrap;html=1;fontSize=8;fillColor=#f5f5f5;fontColor=#333333;strokeColor=#666666;fontStyle=1" parent="1" vertex="1">
          <mxGeometry x="-618" y="140" width="170" height="142" as="geometry" />
        </mxCell>
        <mxCell id="ePMcmUR_puS_kPTFhUZq-2" value="Legend:" style="text;html=1;strokeColor=none;fillColor=none;align=left;verticalAlign=middle;whiteSpace=wrap;rounded=0;fontStyle=1;spacing=6;" parent="1" vertex="1">
          <mxGeometry x="-615" y="140" width="80" height="30" as="geometry" />
        </mxCell>
        <mxCell id="ePMcmUR_puS_kPTFhUZq-10" value="data or method call [comm. technology]" style="text;html=1;strokeColor=none;fillColor=none;align=left;verticalAlign=middle;whiteSpace=wrap;rounded=0;fontStyle=1;fontSize=8;" parent="1" vertex="1">
          <mxGeometry x="-535" y="229" width="74" height="40" as="geometry" />
        </mxCell>
        <mxCell id="ePMcmUR_puS_kPTFhUZq-11" value=":Component/Class" style="shape=umlLifeline;perimeter=lifelinePerimeter;whiteSpace=wrap;html=1;container=1;collapsible=0;recursiveResize=0;outlineConnect=0;fontSize=10;fontStyle=1" parent="1" vertex="1">
          <mxGeometry x="-603" y="170" width="120" height="82" as="geometry" />
        </mxCell>
        <mxCell id="ePMcmUR_puS_kPTFhUZq-12" value="" style="html=1;points=[];perimeter=orthogonalPerimeter;fontStyle=1" parent="ePMcmUR_puS_kPTFhUZq-11" vertex="1">
          <mxGeometry x="55" y="52" width="10" height="20" as="geometry" />
        </mxCell>
        <mxCell id="ePMcmUR_puS_kPTFhUZq-13" value="" style="html=1;verticalAlign=bottom;startArrow=oval;endArrow=block;startSize=8;rounded=0;entryX=0.858;entryY=0.627;entryDx=0;entryDy=0;entryPerimeter=0;fontSize=9;exitX=1.041;exitY=0.38;exitDx=0;exitDy=0;exitPerimeter=0;fontStyle=1" parent="1" source="ePMcmUR_puS_kPTFhUZq-12" target="ePMcmUR_puS_kPTFhUZq-1" edge="1">
          <mxGeometry x="1" y="14" relative="1" as="geometry">
            <mxPoint x="-653.2407407407406" y="-78" as="sourcePoint" />
            <mxPoint x="-590" y="-78" as="targetPoint" />
            <mxPoint x="14" y="14" as="offset" />
          </mxGeometry>
        </mxCell>
      </root>
    </mxGraphModel>
  </diagram>
</mxfile>
